# xmcd
#
# Track frame offsets: 
#        150
#        15103
#        38635
#        58008
#        73698
#        88108
#        102350
#        127879
#        147552
#        162450
#        177756
#        203551
#        218375
#        244025
#
# Disc length: 4161 seconds
#
# Revision: 0
# Processed by: cddbd v1.5.1PL2 Copyright (c) Steve Scherf et al.
# Submitted via: ExactAudioCopy v0.95b3
#
DISCID=b6103f0e
DTITLE=Al Green  - The Immortal Soul of Al Green - [CD2]
DYEAR=1900
DGENRE=
TTITLE0=I'm Still In Love With You
TTITLE1=Love and Happiness
TTITLE2=Simply Beautiful
TTITLE3=Oh, Pretty Woman
TTITLE4=Look What You Done For Me
TTITLE5=Call Me (Come Back Home)
TTITLE6=Funny How Time Slips Away
TTITLE7=Here I Am (Come and Take Me)
TTITLE8=I'm So Lonesome I Could Cry
TTITLE9=You Ought To Be With Me
TTITLE10=Jesus Is Waiting
TTITLE11=Livin' for You
TTITLE12=Let's Get Married
TTITLE13=Beware
EXTD=
EXTT0=
EXTT1=
EXTT2=
EXTT3=
EXTT4=
EXTT5=
EXTT6=
EXTT7=
EXTT8=
EXTT9=
EXTT10=
EXTT11=
EXTT12=
EXTT13=
PLAYORDER=
